<svg xmlns="http://www.w3.org/2000/svg" version="1.1" xmlns:xlink="http://www.w3.org/1999/xlink" xmlns:svgjs="http://svgjs.com/svgjs" width="1440" height="560" preserveAspectRatio="none" viewBox="0 0 1440 560"><g mask="url(&quot;#SvgjsMask1591&quot;)" fill="none"><rect width="1440" height="560" x="0" y="0" fill="url(#SvgjsLinearGradient1592)"></rect><path d="M601.7498260359454 228.44329925309745L593.5595582212129 170.16651562593205 510.23951668783104 211.5903091616135z" fill="rgba(28, 83, 142, 0.4)" class="triangle-float2"></path><path d="M1412.9133720617558-72.12808362142016L1256.762471298193 36.988324222120355 1406.4343540310904 109.98817902296236z" fill="rgba(28, 83, 142, 0.4)" class="triangle-float2"></path><path d="M1442.632,391.273C1473.783,392.017,1506.58,384.861,1523.548,358.726C1541.884,330.483,1541.632,293.733,1524.948,264.484C1508.115,234.972,1476.605,216.539,1442.632,216.866C1409.202,217.188,1378.885,236.617,1363.018,266.044C1347.907,294.069,1351.062,328.145,1368.144,355.014C1384.023,379.991,1413.043,390.566,1442.632,391.273" fill="rgba(28, 83, 142, 0.4)" class="triangle-float1"></path><path d="M1307.7636790345641 79.67018746982545L1290.5472152760867 219.8870325835349 1447.9805241482736 96.88665122830285z" fill="rgba(28, 83, 142, 0.4)" class="triangle-float1"></path><path d="M1062.9980711280407 338.82556196930256L1005.4936468835576 427.19012999399087 1097.4297704779112 433.6189300193886z" fill="rgba(28, 83, 142, 0.4)" class="triangle-float2"></path><path d="M8.642041460556106 537.4732549082756L103.54065137215885 566.5855944138294 85.49972735260917 481.7097200686432z" fill="rgba(28, 83, 142, 0.4)" class="triangle-float3"></path><path d="M776.3768697772176 261.1814669541584L705.4589012909407 318.60970550097215 833.8051083240314 332.09943544043534z" fill="rgba(28, 83, 142, 0.4)" class="triangle-float2"></path><path d="M100.34626391777462 398.00919136911L100.34626391777464 486.7385362937429 233.44028130472407 442.37386383142643z" fill="rgba(28, 83, 142, 0.4)" class="triangle-float3"></path></g><defs><mask id="SvgjsMask1591"><rect width="1440" height="560" fill="#ffffff"></rect></mask><linearGradient x1="15.28%" y1="-39.29%" x2="84.72%" y2="139.29%" gradientUnits="userSpaceOnUse" id="SvgjsLinearGradient1592"><stop stop-color="rgba(151, 35, 91, 1)" offset="0"></stop><stop stop-color="rgba(151, 35, 91, 1)" offset="0.23"></stop><stop stop-color="#00459e" offset="1"></stop></linearGradient></defs></svg>